<?xml version="1.0" encoding="utf-8"?>
<!-- Generator: Mapper 4.0.0.6 - Visualize IT Ltd, SVG Export. SVG Version: 6.00 Build 43363)  -->
<!DOCTYPE svg PUBLIC "-//W3C//DTD SVG 1.1//EN" "http://www.w3.org/Graphics/SVG/1.1/DTD/svg11.dtd">
<svg version="1.1" id="grids" xmlns="http://www.w3.org/2000/svg" xmlns:xlink="http://www.w3.org/1999/xlink">
<desc xmlns:vizidoc="http://www.visualize-it.com/vizidoc">
<vizidoc:original>Room5_Original.jpg</vizidoc:original>
<vizidoc:mask>Room5_Mask.jpg</vizidoc:mask>
<vizidoc:lighting>Room5_Lighting.jpg</vizidoc:lighting>
<vizidoc:highlights>Room5_Highlights.jpg</vizidoc:highlights>
<vizidoc:environment>Room5_Cube.jpg</vizidoc:environment>
</desc>
<polygon fill="none" id = "grid_FLOOR1_0" stroke = "#00FF00" points = "240 898,788 770,1416 1241,105 1231"/>
<polygon fill="none" id = "quad_FLOOR1_2662_2957_910_861_-25.9_-25.9_200.0_8.6_0.0_0.0_0.5_1.0_1.0_1.0_-80.2_3.6_0.0" stroke = "#0000FF" points = "204 900,790 767,1418 1234,-1093 3848"/>
<polygon fill="none" id = "grid_WALL1_0" stroke = "#00FF00" points = "1235 -7,788 249,788 770,1416 1241,1622 1242,1615 -11"/>
<polygon fill="none" id = "quad_WALL1_3422_2250_788_770" stroke = "#0000FF" points = "785 246,1804 -366,1788 1558,787 776"/>
<polygon fill="none" id = "grid_WALL2_0" stroke = "#00FF00" points = "241 159,788 249,788 770,240 898"/>
<polygon fill="none" id = "quad_WALL2_2785_2320_788_770_169.2_50.0_200.0_3.0_0.0_0.0_0.5_1.0_0.5_1.0_0.0_-66.6_0.0" stroke = "#0000FF" points = "161 117,789 226,792 774,161 920"/>
<polygon fill="none" id = "grid_WALL3_0" stroke = "#00FF00" points = "94 -116,241 159,240 898,105 1231,-16 1224,-13 -118"/>
<polygon fill="none" id = "quad_WALL3_2365_2490_240_898_169.2_50.0_200.0_3.0_0.0_0.0_0.5_1.0_0.5_1.0_0.0_-66.6_0.0" stroke = "#0000FF" points = "-91 -657,246 118,250 909,-56 1766"/>
<polygon fill="none" id = "grid_WALL4OVERLAY_0" stroke = "#00FF00" points = "1205 269,1585 175,1585 657,1205 601,1205 267"/>
<polygon fill="none" id = "quad_WALL4OVERLAY_2310_1593_N_N_169.2_50.0_200.0_3.0_0.0_0.0_0.5_1.0_0.5_1.0_0.0_-66.6_0.0" stroke = "#0000FF" points = "1202 264,1587 162,1590 676,1201 612"/>
</svg>
