<?xml version="1.0" standalone="no"?>
<!DOCTYPE svg PUBLIC "-//W3C//DTD SVG 20010904//EN"
 "http://www.w3.org/TR/2001/REC-SVG-20010904/DTD/svg10.dtd">
<svg version="1.0" xmlns="http://www.w3.org/2000/svg"
 width="256.000000pt" height="256.000000pt" viewBox="0 0 256.000000 256.000000"
 preserveAspectRatio="xMidYMid meet">
<metadata>
Created by potrace 1.11, written by Peter Selinger 2001-2013
</metadata>
<g transform="translate(0.000000,256.000000) scale(0.100000,-0.100000)"
fill="#000000" stroke="none">
<path d="M531 2252 c-55 -169 -121 -370 -146 -447 -261 -798 -371 -1135 -380
-1156 -8 -20 -39 -8 455 -169 223 -73 547 -179 720 -235 518 -170 714 -234
733 -237 16 -2 26 19 63 132 24 74 51 156 59 183 l14 47 -270 0 c-173 0 -269
4 -269 10 0 6 5 11 10 11 6 1 13 2 18 3 4 1 24 5 44 9 42 9 92 47 112 86 8 14
17 49 20 76 6 38 10 904 7 1092 l-1 31 -77 -4 c-189 -9 -255 -22 -323 -65 -66
-41 -122 -135 -144 -241 -4 -16 -11 -28 -17 -28 -10 0 -2 298 10 360 1 3 298
5 661 5 l660 0 31 95 c18 52 34 100 36 107 3 7 -136 57 -384 138 -569 186
-709 231 -903 295 -369 122 -586 193 -612 200 l-27 8 -100 -306z"/>
<path d="M1937 1676 c-6 -20 0 -1100 7 -1136 11 -57 57 -115 98 -125 22 -5 26
3 67 132 25 76 68 210 97 298 231 705 225 685 212 704 -32 46 -104 91 -173
110 -87 23 -302 35 -308 17z"/>
</g>
</svg>
